PathFileType	4	(x/y/z)	S10_PSF_T11
DataRate	CameraRate	NumFrames	NumMarkers	Units	OrigDataRate	OrigDataStartFrame	OrigNumFrames
240	240	9	51	mm	240	288	460
Frame#	Time	Sternum			R.Acromium			L.Acromium			Top.Head			R.ASIS			L.ASIS			R.PSIS			L.PSIS			R.Great.Tro			L.Great.Tro			R.Iliac.Crest			L.Iliac.Crest			V.Sacral			R.Thigh.Upper.Post			R.Thigh.Lower.Ant			R.Thigh.Lower.Post			R.Thigh.Upper.Ant			R.Knee.Lat			R.Knee.Med			R.Shank.Upper.Post			R.Shank.Lower.Ant			R.Shank.Lower.Post			R.Shank.Upper.Ant			R.Ankle.Lat			R.Ankle.Med			R.Heel.Upper			R.Heel.Med			R.Heel.Lat			R.Toe.Lat			R.Toe.Med			R.Toe.Tip			L.Thigh.Upper.Post			L.Thigh.Lower.Ant			L.Thigh.Lower.Post			L.Thigh.Upper.Ant			L.Knee.Lat			L.Knee.Med			L.Shank.Upper.Post			L.Shank.Lower.Ant			L.Shank.Lower.Post			L.Shank.Upper.Ant			L.Ankle.Lat			L.Ankle.Med			L.Heel.Upper			L.Heel.Med			L.Heel.Lat			L.Toe.Lat			L.Toe.Med			L.Toe.Tip			Cervical.Spine			Back			
		X1	Y1	Z1	X2	Y2	Z2	X3	Y3	Z3	X4	Y4	Z4	X5	Y5	Z5	X6	Y6	Z6	X7	Y7	Z7	X8	Y8	Z8	X9	Y9	Z9	X10	Y10	Z10	X11	Y11	Z11	X12	Y12	Z12	X13	Y13	Z13	X14	Y14	Z14	X15	Y15	Z15	X16	Y16	Z16	X17	Y17	Z17	X18	Y18	Z18	X19	Y19	Z19	X20	Y20	Z20	X21	Y21	Z21	X22	Y22	Z22	X23	Y23	Z23	X24	Y24	Z24	X25	Y25	Z25	X26	Y26	Z26	X27	Y27	Z27	X28	Y28	Z28	X29	Y29	Z29	X30	Y30	Z30	X31	Y31	Z31	X32	Y32	Z32	X33	Y33	Z33	X34	Y34	Z34	X35	Y35	Z35	X36	Y36	Z36	X37	Y37	Z37	X38	Y38	Z38	X39	Y39	Z39	X40	Y40	Z40	X41	Y41	Z41	X42	Y42	Z42	X43	Y43	Z43	X44	Y44	Z44	X45	Y45	Z45	X46	Y46	Z46	X47	Y47	Z47	X48	Y48	Z48	X49	Y49	Z49	X50	Y50	Z50	X51	Y51	Z51	

288	1.1958	78.68	1230.5	291.4	-6.8661	1393.8	456.64	-73.749	1404.7	157.31	-92.782	1704.4	327.25	34.85	961	421.03	18.019	995.18	193.56	-172.32	984.19	346.74	-174.03	995.15	265.63	-45.652	883.12	498.16	-37.141	936.93	135.16	-55.238	1040	473.13	-55.21	1063.5	171.61	-192.68	953.8	309.59	-97.525	682.67	482.24	-66.27	593.54	441.99	-130.16	600.23	467.3	-30.193	676.8	453.48	-183.83	484.41	432.57	-185.66	492.53	303.93	-366.93	335.25	438.64	-348.36	245.75	419.64	-407.27	273.44	433.52	-300.39	306.51	425.91	-455.58	171.11	410.91	-442.96	176.61	332.19	-537.51	152.74	362.94	-541.66	127.31	334.64	-545.95	127.99	396	-401.34	41.75	440.4	-371.19	41.633	331.65	-314.95	43.752	371.3	31.863	659.79	139	128.94	613	168.37	66.133	573.48	163.51	101.2	696.47	145.17	132.13	509.91	176.76	133.31	511.46	306.18	124.33	288.29	174.4	209.79	220.08	192.06	146.3	213.96	183.52	188.48	293.49	183.31	200.21	104.73	194.78	213.57	114.94	282.31	142.07	75.014	244.08	155.23	43.041	277	148.39	45.182	212.43	323.18	45.444	170.73	353.17	57.28	275.19	404.19	73.991	226.61	-114.67	1456.9	333.97	-201.13	1248.7	344.88
289	1.2	84.935	1231.1	290.74	-1.1219	1394.2	455.89	-67.58	1405	156.49	-87.238	1704.7	326.56	40.99	961.41	420.38	24.257	995.93	192.98	-166.16	984.54	346.09	-167.83	995.69	264.99	-39.246	883.12	497.31	-30.759	937.87	134.52	-49.102	1040.4	472.43	-48.925	1064.3	171.07	-186.44	954.19	308.84	-89.845	682.27	481.42	-57.824	593.33	441.37	-121.78	599.56	466.64	-22.496	676.91	452.66	-174.7	483.45	432.42	-176.24	491.11	303.68	-359.83	336.88	438.38	-342.57	247.05	419.88	-401.17	275.69	433.53	-293.76	307.2	426.12	-450.81	174.14	411.24	-437.93	179.08	332.45	-532.24	157.86	362.92	-537.37	132.72	334.56	-541.65	133.47	395.93	-400.34	42.637	440.4	-370.43	41.868	331.73	-314.56	43.383	371.2	38.354	660.54	138.53	135.39	613.84	168.27	72.57	574.26	163.21	107.65	697.27	145	138.56	510.63	176.83	139.32	512.4	306.16	128.53	289.08	173.99	212.93	219.77	192.42	149.43	214.5	183.3	192.66	293.46	183.46	201.23	104.73	194.88	214.73	114.73	282.47	142.48	75.32	244.17	155.4	43.214	277.03	148.56	45.485	212.46	323.48	44.515	170.62	353.72	55.72	275.23	405.01	71.841	226.51	-108.8	1457.3	333.07	-195.08	1249	343.89
290	1.2042	91.175	1231.7	290.1	4.5886	1394.7	455.15	-61.4	1405.4	155.67	-81.692	1705.2	325.88	47.079	961.88	419.74	30.479	996.73	192.41	-160.02	984.94	345.43	-161.65	996.28	264.34	-32.866	883.17	496.45	-24.403	938.84	133.88	-43.023	1040.8	471.73	-42.652	1065	170.54	-180.22	954.63	308.07	-82.063	681.9	480.62	-49.224	593.16	440.8	-113.24	598.89	466.03	-14.693	677.08	451.86	-165.36	482.47	432.34	-166.54	489.63	303.5	-352.47	338.52	438.11	-336.52	248.39	420.15	-394.8	277.97	433.5	-286.88	307.91	426.36	-445.74	177.23	411.56	-432.59	181.63	332.69	-526.58	163.16	362.88	-532.71	138.33	334.45	-536.97	139.17	395.83	-399.23	43.665	440.37	-369.6	42.196	331.8	-314.11	42.983	371.1	44.786	661.3	138.03	141.76	614.67	168.14	78.933	575.05	162.89	114.04	698.07	144.79	144.88	511.33	176.89	145.29	513.35	306.12	132.6	289.86	173.58	215.93	219.48	192.78	152.44	215.04	183.09	196.71	293.43	183.61	202.17	104.77	195	215.78	114.58	282.64	142.84	75.582	244.26	155.54	43.365	277.06	148.71	45.757	212.5	323.75	43.761	170.52	354.21	54.351	275.3	405.73	69.941	226.44	-102.95	1457.8	332.18	-189.07	1249.4	342.9
291	1.2083	97.398	1232.4	289.48	10.261	1395.3	454.43	-55.21	1405.9	154.87	-76.145	1705.7	325.18	53.114	962.42	419.09	36.684	997.57	191.84	-153.93	985.4	344.76	-155.5	996.92	263.69	-26.52	883.28	495.58	-18.076	939.85	133.24	-37.006	1041.3	471.02	-36.393	1065.9	169.99	-174.04	955.13	307.28	-74.185	681.55	479.85	-40.477	593.03	440.27	-104.56	598.23	465.47	-6.7888	677.31	451.08	-155.83	481.49	432.33	-156.58	488.09	303.4	-344.86	340.18	437.83	-330.21	249.77	420.45	-388.16	280.28	433.45	-279.77	308.63	426.64	-440.36	180.4	411.85	-426.96	184.23	332.9	-520.53	168.63	362.83	-527.67	144.11	334.32	-531.89	145.09	395.72	-397.99	44.848	440.34	-368.67	42.635	331.84	-313.6	42.552	371	51.15	662.06	137.52	148.06	615.49	167.98	85.21	575.83	162.55	120.36	698.85	144.55	151.07	512	176.94	151.2	514.3	306.08	136.54	290.64	173.19	218.8	219.2	193.14	155.32	215.59	182.91	200.62	293.39	183.75	203.03	104.83	195.13	216.72	114.48	282.8	143.13	75.806	244.34	155.66	43.495	277.1	148.84	45.998	212.54	323.97	43.164	170.43	354.62	53.159	275.38	406.35	68.273	226.39	-97.125	1458.3	331.29	-183.09	1249.9	341.92
292	1.2125	103.6	1233.1	288.88	15.892	1396	453.74	-49.011	1406.4	154.09	-70.594	1706.2	324.49	59.09	963.02	418.46	42.869	998.45	191.27	-147.88	985.91	344.07	-149.38	997.6	263.02	-20.216	883.45	494.7	-11.78	940.87	132.6	-31.056	1041.8	470.29	-30.152	1066.8	169.45	-167.89	955.68	306.47	-66.221	681.22	479.12	-31.593	592.94	439.79	-95.727	597.59	464.98	1.2063	677.59	450.34	-146.11	480.5	432.38	-146.36	486.48	303.37	-337	341.85	437.54	-323.64	251.19	420.78	-381.24	282.61	433.36	-272.41	309.38	426.94	-434.67	183.63	412.14	-421.03	186.91	333.07	-514.08	174.27	362.77	-522.23	150.08	334.17	-526.39	151.22	395.61	-396.62	46.197	440.28	-367.64	43.201	331.88	-313.03	42.086	370.9	57.437	662.82	136.98	154.27	616.28	167.8	91.389	576.6	162.19	126.62	699.62	144.27	157.11	512.64	176.97	157.04	515.23	306.01	140.33	291.39	172.81	221.53	218.93	193.49	158.07	216.13	182.74	204.37	293.34	183.89	203.83	104.91	195.26	217.58	114.42	282.97	143.38	75.995	244.43	155.75	43.607	277.14	148.95	46.211	212.59	324.16	42.705	170.35	354.98	52.128	275.49	406.89	66.819	226.36	-91.329	1458.8	330.42	-177.15	1250.5	340.93
293	1.2167	109.77	1233.9	288.32	21.477	1396.6	453.06	-42.805	1407	153.32	-65.04	1706.8	323.79	65.004	963.68	417.83	49.034	999.36	190.69	-141.88	986.46	343.36	-143.29	998.32	262.33	-13.961	883.66	493.8	-5.5167	941.91	131.96	-25.18	1042.3	469.56	-23.932	1067.7	168.89	-161.78	956.26	305.64	-58.181	680.91	478.43	-22.582	592.9	439.38	-86.768	596.96	464.56	9.2815	677.93	449.65	-136.22	479.52	432.5	-135.87	484.81	303.42	-328.88	343.53	437.25	-316.83	252.64	421.13	-374.06	284.97	433.25	-264.81	310.14	427.27	-428.66	186.92	412.4	-414.79	189.65	333.22	-507.23	180.06	362.7	-516.38	156.21	334.03	-520.47	157.53	395.5	-395.1	47.724	440.22	-366.48	43.911	331.89	-312.37	41.587	370.81	63.634	663.57	136.43	160.37	617.04	167.59	97.454	577.35	161.83	132.8	700.35	143.96	162.98	513.22	176.98	162.8	516.12	305.93	143.98	292.12	172.47	224.12	218.67	193.83	160.68	216.66	182.59	207.96	293.29	184.01	204.55	105	195.41	218.34	114.41	283.13	143.59	76.154	244.51	155.83	43.701	277.19	149.05	46.396	212.63	324.33	42.363	170.27	355.28	51.242	275.6	407.36	65.559	226.35	-85.563	1459.4	329.56	-171.25	1251.1	339.95
294	1.2208	115.91	1234.8	287.78	27.012	1397.4	452.41	-36.59	1407.7	152.58	-59.483	1707.5	323.09	70.853	964.38	417.2	55.177	1000.3	190.11	-135.92	987.05	342.64	-137.23	999.07	261.63	-7.7634	883.92	492.89	0.71512	942.95	131.31	-19.38	1042.9	468.83	-17.734	1068.6	168.32	-155.71	956.89	304.79	-50.073	680.63	477.79	-13.456	592.91	439.05	-77.694	596.35	464.21	17.425	678.33	449	-126.18	478.54	432.67	-125.12	483.09	303.54	-320.53	345.22	436.96	-309.76	254.13	421.51	-366.61	287.35	433.11	-256.98	310.91	427.62	-422.34	190.26	412.66	-408.27	192.46	333.33	-499.98	185.98	362.66	-510.14	162.5	333.89	-514.14	164.02	395.4	-393.4	49.439	440.15	-365.18	44.779	331.9	-311.61	41.055	370.73	69.73	664.3	135.88	166.36	617.75	167.37	103.39	578.08	161.46	138.89	701.04	143.62	168.67	513.75	176.96	168.44	516.98	305.84	147.45	292.81	172.15	226.56	218.41	194.15	163.15	217.17	182.47	211.38	293.22	184.12	205.22	105.11	195.55	219.04	114.42	283.28	143.77	76.289	244.59	155.9	43.78	277.23	149.14	46.557	212.68	324.48	42.12	170.2	355.54	50.484	275.72	407.76	64.473	226.36	-79.829	1460	328.7	-165.39	1251.7	338.97
295	1.225	122.01	1235.7	287.27	32.493	1398.2	451.78	-30.369	1408.4	151.85	-53.922	1708.2	322.39	76.635	965.12	416.59	61.297	1001.2	189.53	-130.02	987.68	341.89	-131.21	999.85	260.91	-1.6294	884.22	491.96	6.9157	943.99	130.66	-13.66	1043.6	468.09	-11.558	1069.6	167.74	-149.69	957.55	303.91	-41.911	680.39	477.2	-4.2282	592.96	438.8	-68.516	595.77	463.94	25.623	678.79	448.41	-115.99	477.58	432.91	-114.14	481.34	303.73	-311.93	346.93	436.67	-302.46	255.66	421.9	-358.91	289.76	432.95	-248.92	311.71	427.99	-415.72	193.64	412.91	-401.46	195.34	333.4	-492.33	192.01	362.63	-503.49	168.94	333.77	-507.38	170.65	395.32	-391.52	51.352	440.06	-363.71	45.818	331.9	-310.73	40.495	370.67	75.715	665.01	135.31	172.22	618.41	167.12	109.19	578.78	161.08	144.89	701.68	143.26	174.17	514.23	176.93	173.96	517.77	305.74	150.76	293.47	171.88	228.86	218.14	194.44	165.49	217.66	182.37	214.63	293.13	184.22	205.84	105.22	195.7	219.66	114.46	283.43	143.91	76.401	244.66	155.95	43.845	277.28	149.22	46.694	212.72	324.6	41.959	170.14	355.76	49.839	275.85	408.09	63.542	226.38	-74.127	1460.7	327.86	-159.57	1252.4	337.98
296	1.2292	128.07	1236.6	286.8	37.916	1399	451.18	-24.14	1409.2	151.14	-48.359	1709	321.69	82.348	965.91	415.98	67.394	1002.2	188.94	-124.17	988.34	341.11	-125.22	1000.6	260.17	4.4338	884.56	491.02	13.086	945.01	130.01	-8.0235	1044.3	467.35	-5.4048	1070.6	167.14	-143.71	958.24	303.01	-33.705	680.17	476.67	5.087	593.07	438.64	-59.252	595.21	463.75	33.863	679.3	447.88	-105.68	476.63	433.18	-102.93	479.56	303.99	-303.09	348.66	436.39	-294.93	257.23	422.3	-350.95	292.19	432.78	-240.64	312.52	428.36	-408.81	197.08	413.15	-394.38	198.28	333.45	-484.31	198.14	362.63	-496.44	175.49	333.67	-500.22	177.41	395.28	-389.44	53.467	439.97	-362.04	47.04	331.89	-309.73	39.911	370.63	81.576	665.7	134.75	177.94	619	166.86	114.83	579.44	160.7	150.78	702.27	142.86	179.47	514.64	176.87	179.33	518.49	305.62	153.9	294.09	171.65	231.02	217.88	194.7	167.68	218.13	182.29	217.7	293.02	184.3	206.4	105.33	195.84	220.22	114.52	283.57	144.03	76.497	244.73	155.99	43.9	277.33	149.29	46.811	212.77	324.71	41.866	170.08	355.95	49.293	275.98	408.38	62.748	226.4	-68.459	1461.4	327.02	-153.79	1253.1	337
